<svg xmlns="http://www.w3.org/2000/svg" viewBox="0 0 240 240" role="img" aria-labelledby="title">
  <title>ICCA Certified Cloud Associate</title>
  <defs>
    <linearGradient id="sky" x1="0" y1="0" x2="1" y2="1">
      <stop offset="0%" stop-color="#1d4ed8"/>
      <stop offset="100%" stop-color="#0ea5e9"/>
    </linearGradient>
  </defs>
  <rect width="240" height="240" rx="24" fill="url(#sky)"/>
  <rect x="20" y="20" width="200" height="200" rx="20" fill="none" stroke="#93c5fd" stroke-width="3"/>
  <path d="M83 122c-12 0-22-9-22-22s10-22 22-22c8 0 15 4 19 11 3-2 7-3 11-3 11 0 20 9 20 20v2c7 1 13 7 13 15 0 9-7 16-16 16H83c-7 0-13-5-13-12 0-6 5-11 13-11z" fill="#dbeafe"/>
  <text x="120" y="156" text-anchor="middle" fill="#e0f2fe" font-size="24" font-family="Arial, sans-serif" font-weight="800">ICCA</text>
  <text x="120" y="176" text-anchor="middle" fill="#dbeafe" font-size="11" font-family="Arial, sans-serif" font-weight="700">CERTIFIED CLOUD ASSOCIATE</text>
</svg>
